
<svg width="45px" height="35px" viewBox="0 0 45 35" version="1.1" xmlns="http://www.w3.org/2000/svg" xmlns:xlink="http://www.w3.org/1999/xlink">
    <g id="Page-1" stroke="none" stroke-width="1" fill="none" fill-rule="evenodd">
        <g id="Leaders-v2" transform="translate(-779.000000, -788.000000)" fill="#FFFFFF" fill-rule="nonzero">
            <g id="right-arrow" transform="translate(779.000000, 788.000000)">
                <path d="M44.280728,15.8654034 L28.0296441,0.671761395 C27.5657455,0.23805801 26.947458,0 26.2881952,0 C25.6282007,0 25.0102791,0.238400047 24.5463805,0.671761395 L23.070905,2.05154015 C22.6073723,2.48455946 22.3520086,3.06294465 22.3520086,3.67963803 C22.3520086,4.29598937 22.6073723,4.89387069 23.070905,5.32689 L32.5515576,14.2099425 L2.43107727,14.2099425 C1.07303982,14.2099425 0,15.2039031 0,16.4738879 L0,18.424527 C0,19.6945118 1.07303982,20.7886893 2.43107727,20.7886893 L32.6591176,20.7886893 L23.0712708,29.7213373 C22.6077381,30.1550407 22.3523744,30.7176921 22.3523744,31.3343855 C22.3523744,31.9503948 22.6077381,32.5212552 23.0712708,32.9546165 L24.5467463,34.3299488 C25.0106449,34.7636522 25.6285666,35 26.2885611,35 C26.9478239,35 27.5661114,34.7605738 28.0300099,34.3268705 L44.2810938,19.1335705 C44.7460899,18.6984989 45.0018195,18.1177195 44.9999903,17.500342 C45.0014537,16.8809124 44.7460899,16.2997909 44.280728,15.8654034 Z" id="Path"></path>
            </g>
        </g>
    </g>
</svg>