
<svg width="45px" height="35px" viewBox="0 0 45 35" version="1.1" xmlns="http://www.w3.org/2000/svg" xmlns:xlink="http://www.w3.org/1999/xlink">
    <g id="Page-1" stroke="none" stroke-width="1" fill="none" fill-rule="evenodd" opacity="0.25">
        <g id="Leaders-v2" transform="translate(-616.000000, -788.000000)" fill="#FFFFFF" fill-rule="nonzero">
            <g id="left-arrow" transform="translate(616.000000, 788.000000)">
                <path d="M42.4704884,14.1955502 L42.5407322,14.209939 L12.4287876,14.209939 L21.8948831,5.32624336 C22.3584196,4.89252469 22.6126878,4.30498321 22.6126878,3.6883216 C22.6126878,3.07165999 22.3584196,2.48822959 21.8948831,2.05348316 L20.4219566,0.673531513 C19.9587859,0.239812848 19.341591,0 18.6834204,0 C18.0248839,0 17.4073231,0.238099899 16.9441525,0.671818564 L0.71744867,15.8653329 C0.252448771,16.3007645 -0.00181946618,16.880769 9.80171701e-06,17.4977732 C-0.00181946618,18.1182033 0.252448771,18.6985504 0.71744867,19.1332968 L16.9441525,34.3281814 C17.4073231,34.7615575 18.0245181,35 18.6834204,35 C19.341591,35 19.9587859,34.7612149 20.4219566,34.3281814 L21.8948831,32.9482298 C22.3584196,32.5151963 22.6126878,31.9369048 22.6126878,31.3202431 C22.6126878,30.7039241 22.3584196,30.1561231 21.8948831,29.722747 L12.3219583,20.7893758 L42.5041469,20.7893758 C43.8603661,20.7893758 45,19.6948014 45,18.4255063 L45,16.4737723 C45,15.2044772 43.8267076,14.1955502 42.4704884,14.1955502 Z" id="Path"></path>
            </g>
        </g>
    </g>
</svg>