 <svg width="29px" height="28px" viewBox="0 0 29 28" version="1.1" xmlns="http://www.w3.org/2000/svg" xmlns:xlink="http://www.w3.org/1999/xlink">
    <g id="Page-1" stroke="none" stroke-width="1" fill="none" fill-rule="evenodd">
        <g id="Pause" transform="translate(-920.000000, -207.000000)" fill="#0F295C" fill-rule="nonzero">
            <g id="cancel" transform="translate(920.000000, 207.000000)">
                <path d="M18.6712329,14.4474886 C18.4063927,14.1917808 18.4063927,13.8082192 18.6712329,13.5525114 L28.6027397,3.96347032 C28.8675799,3.70776256 29,3.32420091 29,3.06849315 C29,2.81278539 28.8675799,2.42922374 28.6027397,2.17351598 L26.7488584,0.383561644 C26.4840183,0.127853881 26.086758,0 25.8219178,0 C25.4246575,0 25.1598174,0.127853881 24.8949772,0.383561644 L14.9634703,9.97260274 C14.6986301,10.2283105 14.3013699,10.2283105 14.0365297,9.97260274 L4.10502283,0.383561644 C3.84018265,0.127853881 3.44292237,0 3.17808219,0 C2.91324201,0 2.51598174,0.127853881 2.25114155,0.383561644 L0.397260274,2.17351598 C0.132420091,2.42922374 0,2.81278539 0,3.06849315 C0,3.32420091 0.132420091,3.70776256 0.397260274,3.96347032 L10.3287671,13.5525114 C10.5936073,13.8082192 10.5936073,14.1917808 10.3287671,14.4474886 L0.397260274,24.0365297 C0.132420091,24.2922374 0,24.6757991 0,24.9315068 C0,25.1872146 0.132420091,25.5707763 0.397260274,25.826484 L2.25114155,27.6164384 C2.51598174,27.8721461 2.91324201,28 3.17808219,28 C3.44292237,28 3.84018265,27.8721461 4.10502283,27.6164384 L14.0365297,18.0273973 C14.3013699,17.7716895 14.6986301,17.7716895 14.9634703,18.0273973 L24.8949772,27.6164384 C25.1598174,27.8721461 25.5570776,28 25.8219178,28 C26.086758,28 26.4840183,27.8721461 26.7488584,27.6164384 L28.6027397,25.826484 C28.8675799,25.5707763 29,25.1872146 29,24.9315068 C29,24.6757991 28.8675799,24.2922374 28.6027397,24.0365297 L18.6712329,14.4474886 Z" id="Path"></path>
            </g>
        </g>
    </g>
</svg>